<svg xmlns="http://www.w3.org/2000/svg" width="18" height="19" viewBox="0 0 18 19" fill="none">
<path d="M1.80001 11.2045C2.79413 11.2045 3.60003 10.3986 3.60003 9.4045C3.60003 8.41039 2.79413 7.60449 1.80001 7.60449C0.805893 7.60449 0 8.41039 0 9.4045C0 10.3986 0.805893 11.2045 1.80001 11.2045Z" fill="#B3A4A5"/>
<path d="M9.00021 11.2045C9.99433 11.2045 10.8002 10.3986 10.8002 9.4045C10.8002 8.41039 9.99433 7.60449 9.00021 7.60449C8.00609 7.60449 7.2002 8.41039 7.2002 9.4045C7.2002 10.3986 8.00609 11.2045 9.00021 11.2045Z" fill="#B3A4A5"/>
<path d="M16.2004 11.2045C17.1945 11.2045 18.0004 10.3986 18.0004 9.4045C18.0004 8.41039 17.1945 7.60449 16.2004 7.60449C15.2063 7.60449 14.4004 8.41039 14.4004 9.4045C14.4004 10.3986 15.2063 11.2045 16.2004 11.2045Z" fill="#B3A4A5"/>
</svg>